<svg width="163" height="48" viewBox="0 0 163 48" fill="none" xmlns="http://www.w3.org/2000/svg">
<g clip-path="url(#clip0_16385_94)">
<path fill-rule="evenodd" clip-rule="evenodd" d="M157.041 48.105H6.46603C3.15432 48.105 0.441895 45.3954 0.441895 42.0809V5.94455C0.441895 2.63283 3.15148 -0.0795898 6.46603 -0.0795898H157.041C160.353 -0.0795898 163.065 2.62999 163.065 5.94455V42.0837C163.065 45.3954 160.356 48.105 157.041 48.105Z" fill="#FBFBFB"/>
<path d="M68.315 37.0139C71.1558 37.0139 73.4587 34.7199 73.4587 31.8901C73.4587 29.0604 71.1558 26.7664 68.315 26.7664C65.4743 26.7664 63.1714 29.0604 63.1714 31.8901C63.1714 34.7199 65.4743 37.0139 68.315 37.0139Z" fill="black"/>
<path d="M79.534 37.0139C82.3747 37.0139 84.6776 34.7199 84.6776 31.8901C84.6776 29.0604 82.3747 26.7664 79.534 26.7664C76.6932 26.7664 74.3903 29.0604 74.3903 31.8901C74.3903 34.7199 76.6932 37.0139 79.534 37.0139Z" fill="black"/>
<path fill-rule="evenodd" clip-rule="evenodd" d="M157.041 -0.0767212H6.46603C3.15432 -0.0767212 0.441895 2.63286 0.441895 5.94742V42.0866C0.441895 45.3983 3.15148 48.1107 6.46603 48.1107H157.041C160.353 48.1107 163.065 45.4011 163.065 42.0866V5.94458C163.065 2.63286 160.356 -0.0767212 157.041 -0.0767212ZM157.041 0.886115C159.83 0.886115 162.1 3.15546 162.1 5.94458V42.0838C162.1 44.8729 159.83 47.1422 157.041 47.1422H6.46603C3.67692 47.1422 1.40757 44.8729 1.40757 42.0838V5.94458C1.40757 3.15546 3.67692 0.886115 6.46603 0.886115H157.041Z" fill="#CCCED3"/>
<path fill-rule="evenodd" clip-rule="evenodd" d="M57.5647 12.2613C57.5647 13.2724 57.2665 14.0733 56.6672 14.6755C55.9856 15.3884 55.1022 15.7434 54.0116 15.7434C52.9692 15.7434 52.0802 15.3827 51.3531 14.6584C50.6204 13.937 50.2568 13.0366 50.2568 11.9687C50.2568 10.8979 50.6204 10.0004 51.3531 9.279C52.0802 8.55758 52.9692 8.19403 54.0116 8.19403C54.5285 8.19403 55.0256 8.29628 55.4942 8.4951C55.9657 8.69675 56.3434 8.96657 56.6246 9.30172L55.9884 9.93793C55.5113 9.36704 54.8523 9.08018 54.0088 9.08018C53.2476 9.08018 52.5915 9.34716 52.0348 9.88397C51.4781 10.4208 51.2026 11.1138 51.2026 11.9687C51.2026 12.8236 51.481 13.5166 52.0348 14.0534C52.5886 14.5902 53.2476 14.8544 54.0088 14.8544C54.8154 14.8544 55.4885 14.5846 56.0282 14.0478C56.3775 13.6956 56.5792 13.2099 56.6331 12.585H54.0088V11.7159H57.5108C57.5477 11.9034 57.5647 12.0852 57.5647 12.2613Z" fill="#010202"/>
<path d="M57.5647 12.2613C57.5647 13.2724 57.2665 14.0733 56.6672 14.6755C55.9856 15.3884 55.1022 15.7434 54.0116 15.7434C52.9692 15.7434 52.0802 15.3827 51.3531 14.6584C50.6204 13.937 50.2568 13.0366 50.2568 11.9687C50.2568 10.8979 50.6204 10.0004 51.3531 9.279C52.0802 8.55758 52.9692 8.19403 54.0116 8.19403C54.5285 8.19403 55.0256 8.29628 55.4942 8.4951C55.9657 8.69675 56.3434 8.96657 56.6246 9.30172L55.9884 9.93793C55.5112 9.36704 54.8523 9.08018 54.0088 9.08018C53.2476 9.08018 52.5915 9.34716 52.0348 9.88397C51.4781 10.4208 51.2026 11.1138 51.2026 11.9687C51.2026 12.8236 51.481 13.5166 52.0348 14.0534C52.5886 14.5902 53.2476 14.8544 54.0088 14.8544C54.8154 14.8544 55.4885 14.5846 56.0282 14.0478C56.3775 13.6956 56.5792 13.2099 56.6331 12.585H54.0088V11.7159H57.5108C57.5477 11.9034 57.5647 12.0852 57.5647 12.2613Z" stroke="#010202" stroke-width="0.2"/>
<path fill-rule="evenodd" clip-rule="evenodd" d="M63.1174 9.24211H59.8256V11.5342H62.7908V12.4033H59.8256V14.6954H63.1174V15.5844H58.8968V8.35596H63.1174V9.24211Z" fill="#010202"/>
<path d="M63.1174 9.24211H59.8256V11.5342H62.7908V12.4033H59.8256V14.6954H63.1174V15.5844H58.8968V8.35596H63.1174V9.24211Z" stroke="#010202" stroke-width="0.2"/>
<path fill-rule="evenodd" clip-rule="evenodd" d="M67.0313 15.5815H66.1025V9.24214H64.0831V8.35315H69.0507V9.24214H67.0313V15.5815Z" fill="#010202"/>
<path d="M67.0313 15.5815H66.1025V9.24214H64.0831V8.35315H69.0507V9.24214H67.0313V15.5815Z" stroke="#010202" stroke-width="0.2"/>
<path fill-rule="evenodd" clip-rule="evenodd" d="M72.6436 15.5815H73.5723V8.35315H72.6436V15.5815Z" fill="#010202"/>
<path d="M72.6436 15.5815H73.5723V8.35315H72.6436V15.5815Z" stroke="#010202" stroke-width="0.2"/>
<path fill-rule="evenodd" clip-rule="evenodd" d="M77.6935 15.5815H76.7647V9.24214H74.7453V8.35315H79.7129V9.24214H77.6935V15.5815Z" fill="#010202"/>
<path d="M77.6935 15.5815H76.7647V9.24214H74.7453V8.35315H79.7129V9.24214H77.6935V15.5815Z" stroke="#010202" stroke-width="0.2"/>
<path fill-rule="evenodd" clip-rule="evenodd" d="M84.4987 14.0421C85.0327 14.5845 85.6888 14.8544 86.4641 14.8544C87.2367 14.8544 87.8899 14.5845 88.4267 14.0421C88.9607 13.4996 89.2305 12.8094 89.2305 11.9687C89.2305 11.128 88.9607 10.4349 88.4267 9.8953C87.8928 9.35282 87.2367 9.083 86.4641 9.083C85.6888 9.083 85.0355 9.35566 84.5015 9.8953C83.9676 10.4349 83.6978 11.128 83.6978 11.9687C83.6978 12.8094 83.9647 13.4996 84.4987 14.0421ZM89.1141 14.647C88.4012 15.3798 87.5207 15.7434 86.4641 15.7434C85.4076 15.7434 84.5243 15.3798 83.8142 14.647C83.1041 13.9171 82.7491 13.0253 82.7491 11.9687C82.7491 10.9121 83.1041 10.0174 83.8142 9.2875C84.5243 8.55756 85.4047 8.19116 86.4613 8.19116C87.5122 8.19116 88.3927 8.55755 89.1056 9.29033C89.8185 10.0231 90.1735 10.915 90.1735 11.9658C90.1792 13.0252 89.8241 13.9171 89.1141 14.647Z" fill="#010202"/>
<path d="M84.4987 14.0421C85.0327 14.5845 85.6888 14.8544 86.4641 14.8544C87.2367 14.8544 87.8899 14.5845 88.4267 14.0421C88.9607 13.4996 89.2305 12.8094 89.2305 11.9687C89.2305 11.128 88.9607 10.4349 88.4267 9.8953C87.8928 9.35282 87.2367 9.083 86.4641 9.083C85.6888 9.083 85.0355 9.35566 84.5015 9.8953C83.9676 10.4349 83.6978 11.128 83.6978 11.9687C83.6978 12.8094 83.9647 13.4996 84.4987 14.0421ZM89.1141 14.647C88.4012 15.3798 87.5207 15.7434 86.4641 15.7434C85.4076 15.7434 84.5243 15.3798 83.8142 14.647C83.1041 13.9171 82.7491 13.0253 82.7491 11.9687C82.7491 10.9121 83.1041 10.0174 83.8142 9.2875C84.5243 8.55756 85.4047 8.19116 86.4613 8.19116C87.5122 8.19116 88.3927 8.55755 89.1056 9.29033C89.8185 10.0231 90.1735 10.915 90.1735 11.9658C90.1792 13.0252 89.8241 13.9171 89.1141 14.647Z" stroke="#010202" stroke-width="0.2"/>
<path fill-rule="evenodd" clip-rule="evenodd" d="M91.4828 15.5815V8.35315H92.6133L96.1266 13.974H96.1664L96.1266 12.5823V8.35315H97.0582V15.5815H96.0869L92.4116 9.68522H92.3718L92.4116 11.0798V15.5815H91.4828Z" fill="#010202"/>
<path d="M91.4828 15.5815V8.35315H92.6133L96.1266 13.974H96.1664L96.1266 12.5823V8.35315H97.0582V15.5815H96.0869L92.4116 9.68522H92.3718L92.4116 11.0798V15.5815H91.4828Z" stroke="#010202" stroke-width="0.2"/>
<path d="M128.522 21.6454H126.276V36.7043H128.522V21.6454Z" fill="black"/>
<path fill-rule="evenodd" clip-rule="evenodd" d="M146.521 27.0703L143.945 33.6H143.865L141.193 27.0703H138.77L142.78 36.1932L140.494 41.2715H142.837L149.018 27.0703H146.521Z" fill="black"/>
<path fill-rule="evenodd" clip-rule="evenodd" d="M134.044 26.7408C132.416 26.7408 130.732 27.4566 130.033 29.0471L132.027 29.8793C132.453 29.0471 133.249 28.7745 134.081 28.7745C135.242 28.7745 136.424 29.4732 136.444 30.7115V30.8677C136.035 30.6348 135.166 30.2883 134.101 30.2883C131.948 30.2883 129.761 31.4698 129.761 33.6767C129.761 35.6933 131.525 36.9913 133.501 36.9913C135.009 36.9913 135.845 36.3124 136.367 35.5172H136.444V36.6788H138.614V30.9046C138.617 28.232 136.62 26.7408 134.044 26.7408Z" fill="black"/>
<path fill-rule="evenodd" clip-rule="evenodd" d="M120.095 21.6454H114.71V36.7043H116.957V30.9983H120.095C122.586 30.9983 125.035 29.1947 125.035 26.3204C125.035 23.4489 122.586 21.6454 120.095 21.6454Z" fill="black"/>
<path fill-rule="evenodd" clip-rule="evenodd" d="M93.3034 27.911H93.2268C92.7212 27.3089 91.7498 26.7635 90.5314 26.7635C87.9695 26.7635 85.6206 29.0159 85.6206 31.9072C85.6206 34.7787 87.9695 37.0111 90.5314 37.0111C91.7527 37.0111 92.724 36.4686 93.2268 35.8495H93.3034V36.5851C93.3034 38.5448 92.2554 39.5929 90.5683 39.5929C89.1908 39.5929 88.3359 38.6045 87.9865 37.7695L86.0268 38.5846C86.5891 39.9422 88.0831 41.6123 90.5683 41.6123C93.2097 41.6123 95.4393 40.0587 95.4393 36.2755V27.076H93.3034V27.911Z" fill="black"/>
<path fill-rule="evenodd" clip-rule="evenodd" d="M96.9929 36.7043H99.2452V21.6454H96.9929V36.7043Z" fill="black"/>
<path fill-rule="evenodd" clip-rule="evenodd" d="M109.55 30.027C109.124 28.8823 107.823 26.7664 105.164 26.7664C102.526 26.7664 100.333 28.8454 100.333 31.8901C100.333 34.7616 102.506 37.0139 105.417 37.0139C107.766 37.0139 109.124 35.5768 109.689 34.7417L107.942 33.5772C107.357 34.4322 106.565 34.9945 105.417 34.9945C104.272 34.9945 103.457 34.4691 102.935 33.4409L109.785 30.6064L109.55 30.027Z" fill="black"/>
<path fill-rule="evenodd" clip-rule="evenodd" d="M54.9716 28.3399V30.5127H60.1749C60.0187 31.7368 59.6097 32.6287 58.9905 33.2478C58.2322 34.0062 57.0478 34.8384 54.9716 34.8384C51.7678 34.8384 49.2656 32.2566 49.2656 29.0556C49.2656 25.8547 51.7707 23.2729 54.9716 23.2729C56.6985 23.2729 57.9595 23.9517 58.8911 24.8237L60.4249 23.29C59.124 22.0488 57.3972 21.0973 54.9716 21.0973C50.5863 21.0973 46.8997 24.6703 46.8997 29.0556C46.8997 33.441 50.5863 37.0111 54.9716 37.0111C57.3404 37.0111 59.124 36.2358 60.5214 34.7787C61.9557 33.3416 62.4045 31.325 62.4045 29.6947C62.4045 29.192 62.3676 28.7262 62.2881 28.3371L54.9716 28.3399Z" fill="black"/>
<path fill-rule="evenodd" clip-rule="evenodd" d="M27.3134 24.0114L12.7231 9.44946C12.5555 9.78745 12.4561 10.2021 12.4561 10.7049V37.3236C12.4561 37.832 12.5584 38.2551 12.7316 38.5931L27.3134 24.0114Z" fill="black"/>
<path fill-rule="evenodd" clip-rule="evenodd" d="M12.7657 9.35575C12.7714 9.34155 12.7799 9.33018 12.7884 9.31598C12.7799 9.33018 12.7742 9.34439 12.7657 9.35575Z" fill="black"/>
<path fill-rule="evenodd" clip-rule="evenodd" d="M28.1569 23.1678L32.6502 18.6745L15.5179 8.94104C15.0322 8.6627 14.5749 8.53204 14.1659 8.53204C13.9586 8.53204 13.7683 8.56896 13.5922 8.63429L28.1569 23.1678Z" fill="black"/>
<path fill-rule="evenodd" clip-rule="evenodd" d="M38.9868 22.276L33.7352 19.2909L29.009 24.017L33.7352 28.7318L38.9868 25.7467C40.6682 24.7953 40.6682 23.2303 38.9868 22.276Z" fill="black"/>
<path fill-rule="evenodd" clip-rule="evenodd" d="M28.1683 24.8634L13.6348 39.4026C14.1546 39.5787 14.805 39.4935 15.5179 39.0901L32.6616 29.3453L28.1683 24.8634Z" fill="black"/>
<path fill-rule="evenodd" clip-rule="evenodd" d="M12.7515 38.6385C12.8197 38.7635 12.8963 38.8771 12.9844 38.9737C12.8963 38.8714 12.814 38.7635 12.7515 38.6385Z" fill="black"/>
<path d="M68.315 28.7858C66.7643 28.7858 65.4237 30.0468 65.4237 31.8901C65.4237 33.7136 66.7614 34.9974 68.315 34.9974C69.8686 34.9974 71.2064 33.7164 71.2064 31.8901C71.2064 30.0468 69.8686 28.7858 68.315 28.7858Z" fill="white"/>
<path d="M82.4253 31.8901C82.4253 30.0468 81.0876 28.7858 79.534 28.7858C77.9832 28.7858 76.6426 30.0468 76.6426 31.8901C76.6426 33.7136 77.9804 34.9974 79.534 34.9974C81.0876 34.9974 82.4253 33.7136 82.4253 31.8901Z" fill="white"/>
<path fill-rule="evenodd" clip-rule="evenodd" d="M90.7245 34.9973C89.1737 34.9973 87.8729 33.6965 87.8729 31.9128C87.8729 30.1064 89.1737 28.7886 90.7273 28.7886C92.2582 28.7886 93.4625 30.1093 93.4625 31.9128C93.4596 33.6965 92.2554 34.9945 90.7245 34.9973Z" fill="#FBFBFB"/>
<path fill-rule="evenodd" clip-rule="evenodd" d="M120.152 28.9022H116.954V23.7415H120.152C121.834 23.7415 122.788 25.1332 122.788 26.3204C122.785 27.4877 121.831 28.9022 120.152 28.9022Z" fill="white"/>
<path fill-rule="evenodd" clip-rule="evenodd" d="M102.563 31.7368C102.506 29.7571 104.096 28.7488 105.244 28.7488C106.136 28.7488 106.894 29.1976 107.144 29.8366L102.563 31.7368Z" fill="white"/>
<path fill-rule="evenodd" clip-rule="evenodd" d="M133.771 34.9946C133.036 34.9946 132.007 34.6253 132.007 33.7165C132.007 32.5548 133.285 32.1089 134.39 32.1089C135.376 32.1089 135.845 32.3219 136.444 32.6116C136.271 34.0062 135.069 34.9946 133.771 34.9946Z" fill="#FBFBFB"/>
</g>
<defs>
<clipPath id="clip0_16385_94">
<rect width="162.462" height="48" fill="white" transform="translate(0.538467)"/>
</clipPath>
</defs>
</svg>
